<mxfile host="65bd71144e">
    <diagram id="zH37ZsuREPHvA2Z547Eo" name="Page-1">
        <mxGraphModel dx="1039" dy="776" grid="1" gridSize="10" guides="1" tooltips="1" connect="1" arrows="1" fold="1" page="1" pageScale="1" pageWidth="850" pageHeight="1100" background="#ffffff" math="0" shadow="0">
            <root>
                <mxCell id="0"/>
                <mxCell id="1" parent="0"/>
                <mxCell id="2" value="P.1.1&lt;div&gt;Login&lt;/div&gt;" style="shape=ellipse;html=1;dashed=0;whiteSpace=wrap;aspect=fixed;perimeter=ellipsePerimeter;" parent="1" vertex="1">
                    <mxGeometry x="370" y="260" width="100" height="100" as="geometry"/>
                </mxCell>
                <mxCell id="3" value="Admin" style="html=1;dashed=0;whiteSpace=wrap;" parent="1" vertex="1">
                    <mxGeometry x="120" y="270" width="100" height="50" as="geometry"/>
                </mxCell>
                <mxCell id="4" value="Hotel&lt;div&gt;Organizer&lt;/div&gt;" style="html=1;dashed=0;whiteSpace=wrap;" parent="1" vertex="1">
                    <mxGeometry x="120" y="425" width="100" height="50" as="geometry"/>
                </mxCell>
                <mxCell id="5" value="Users" style="html=1;dashed=0;whiteSpace=wrap;shape=partialRectangle;right=0;left=0;" parent="1" vertex="1">
                    <mxGeometry x="620" y="295" width="100" height="30" as="geometry"/>
                </mxCell>
                <mxCell id="8" value="" style="endArrow=classic;html=1;rounded=0;curved=0;jumpStyle=arc;exitX=1;exitY=0.5;exitDx=0;exitDy=0;entryX=0;entryY=0.5;entryDx=0;entryDy=0;" parent="1" source="2" target="5" edge="1">
                    <mxGeometry width="50" height="50" relative="1" as="geometry">
                        <mxPoint x="510" y="430" as="sourcePoint"/>
                        <mxPoint x="560" y="380" as="targetPoint"/>
                    </mxGeometry>
                </mxCell>
                <mxCell id="15" value="Data login" style="edgeLabel;html=1;align=center;verticalAlign=middle;resizable=0;points=[];" parent="8" vertex="1" connectable="0">
                    <mxGeometry x="-0.2771" y="1" relative="1" as="geometry">
                        <mxPoint x="19" y="1" as="offset"/>
                    </mxGeometry>
                </mxCell>
                <mxCell id="9" value="" style="endArrow=classic;html=1;rounded=0;curved=0;jumpStyle=arc;exitX=0.5;exitY=1;exitDx=0;exitDy=0;entryX=0.5;entryY=0;entryDx=0;entryDy=0;" parent="1" source="5" target="26" edge="1">
                    <mxGeometry width="50" height="50" relative="1" as="geometry">
                        <mxPoint x="520" y="330" as="sourcePoint"/>
                        <mxPoint x="570" y="280" as="targetPoint"/>
                        <Array as="points">
                            <mxPoint x="670" y="370"/>
                            <mxPoint x="420" y="370"/>
                        </Array>
                    </mxGeometry>
                </mxCell>
                <mxCell id="16" value="Data login" style="edgeLabel;html=1;align=center;verticalAlign=middle;resizable=0;points=[];" parent="9" vertex="1" connectable="0">
                    <mxGeometry x="0.1405" y="1" relative="1" as="geometry">
                        <mxPoint x="9" y="-1" as="offset"/>
                    </mxGeometry>
                </mxCell>
                <mxCell id="11" value="" style="endArrow=classic;html=1;rounded=0;curved=0;jumpStyle=arc;exitX=1;exitY=0.5;exitDx=0;exitDy=0;entryX=0.023;entryY=0.349;entryDx=0;entryDy=0;entryPerimeter=0;" parent="1" source="3" target="2" edge="1">
                    <mxGeometry width="50" height="50" relative="1" as="geometry">
                        <mxPoint x="250" y="300" as="sourcePoint"/>
                        <mxPoint x="300" y="250" as="targetPoint"/>
                    </mxGeometry>
                </mxCell>
                <mxCell id="22" value="Data login admin" style="edgeLabel;html=1;align=center;verticalAlign=middle;resizable=0;points=[];" parent="11" vertex="1" connectable="0">
                    <mxGeometry x="-0.3224" y="1" relative="1" as="geometry">
                        <mxPoint x="22" as="offset"/>
                    </mxGeometry>
                </mxCell>
                <mxCell id="18" value="" style="endArrow=classic;html=1;rounded=0;curved=0;jumpStyle=arc;exitX=0.999;exitY=0.3;exitDx=0;exitDy=0;entryX=0.182;entryY=0.887;entryDx=0;entryDy=0;entryPerimeter=0;exitPerimeter=0;" parent="1" source="4" target="2" edge="1">
                    <mxGeometry width="50" height="50" relative="1" as="geometry">
                        <mxPoint x="270" y="690" as="sourcePoint"/>
                        <mxPoint x="371" y="602" as="targetPoint"/>
                        <Array as="points">
                            <mxPoint x="240" y="440"/>
                            <mxPoint x="240" y="350"/>
                        </Array>
                    </mxGeometry>
                </mxCell>
                <mxCell id="24" value="Data login hotel&lt;div&gt;organizer&lt;/div&gt;" style="edgeLabel;html=1;align=center;verticalAlign=middle;resizable=0;points=[];" parent="18" vertex="1" connectable="0">
                    <mxGeometry x="-0.4122" y="2" relative="1" as="geometry">
                        <mxPoint x="82" y="-34" as="offset"/>
                    </mxGeometry>
                </mxCell>
                <mxCell id="19" value="" style="endArrow=classic;html=1;rounded=0;curved=0;jumpStyle=arc;entryX=1;entryY=0.75;entryDx=0;entryDy=0;exitX=0.055;exitY=0.721;exitDx=0;exitDy=0;exitPerimeter=0;" parent="1" source="26" target="4" edge="1">
                    <mxGeometry width="50" height="50" relative="1" as="geometry">
                        <mxPoint x="407.19000000000005" y="627.4000000000001" as="sourcePoint"/>
                        <mxPoint x="310" y="630" as="targetPoint"/>
                    </mxGeometry>
                </mxCell>
                <mxCell id="25" value="Konfirmasi login&lt;div&gt;hotel organizer&lt;/div&gt;" style="edgeLabel;html=1;align=center;verticalAlign=middle;resizable=0;points=[];" parent="19" vertex="1" connectable="0">
                    <mxGeometry x="0.3578" y="-1" relative="1" as="geometry">
                        <mxPoint x="40" y="-1" as="offset"/>
                    </mxGeometry>
                </mxCell>
                <mxCell id="26" value="P.1.2&lt;div&gt;Validasi&lt;/div&gt;&lt;div&gt;role&lt;/div&gt;" style="shape=ellipse;html=1;dashed=0;whiteSpace=wrap;aspect=fixed;perimeter=ellipsePerimeter;" parent="1" vertex="1">
                    <mxGeometry x="370" y="390" width="100" height="100" as="geometry"/>
                </mxCell>
                <mxCell id="38" style="edgeStyle=none;html=1;entryX=1;entryY=0.5;entryDx=0;entryDy=0;" parent="1" source="27" target="26" edge="1">
                    <mxGeometry relative="1" as="geometry"/>
                </mxCell>
                <mxCell id="39" value="Data role" style="edgeLabel;html=1;align=center;verticalAlign=middle;resizable=0;points=[];" parent="38" vertex="1" connectable="0">
                    <mxGeometry x="0.1903" y="-2" relative="1" as="geometry">
                        <mxPoint x="9" y="2" as="offset"/>
                    </mxGeometry>
                </mxCell>
                <mxCell id="27" value="Roles" style="html=1;dashed=0;whiteSpace=wrap;shape=partialRectangle;right=0;left=0;" parent="1" vertex="1">
                    <mxGeometry x="620" y="425" width="100" height="30" as="geometry"/>
                </mxCell>
                <mxCell id="30" value="" style="endArrow=classic;html=1;rounded=0;curved=0;jumpStyle=arc;entryX=1.005;entryY=0.792;entryDx=0;entryDy=0;exitX=0;exitY=0;exitDx=0;exitDy=0;entryPerimeter=0;" parent="1" source="26" target="3" edge="1">
                    <mxGeometry width="50" height="50" relative="1" as="geometry">
                        <mxPoint x="357.1900000000001" y="390.0000000000001" as="sourcePoint"/>
                        <mxPoint x="170.00000000000006" y="390.6" as="targetPoint"/>
                        <Array as="points">
                            <mxPoint x="260" y="405"/>
                            <mxPoint x="260" y="310"/>
                        </Array>
                    </mxGeometry>
                </mxCell>
                <mxCell id="40" value="Konfirmasil login admin" style="edgeLabel;html=1;align=center;verticalAlign=middle;resizable=0;points=[];" parent="30" vertex="1" connectable="0">
                    <mxGeometry x="-0.231" relative="1" as="geometry">
                        <mxPoint x="35" as="offset"/>
                    </mxGeometry>
                </mxCell>
            </root>
        </mxGraphModel>
    </diagram>
</mxfile>